# xmcd CD database file
#
# Track frame offsets:
#	150
#	17615
#	36682
#	53395
#	73633
#	90759
#	105152
#	125188
#	142058
#	165458
#	184766
#	204161
#	226299
#	238252
#
# Disc length: 3282 seconds
#
# Revision: 2
# Processed by: cddbd v1.5.2PL0 Copyright (c) Steve Scherf et al.
# Submitted via: CDex 1.70beta2
#
DISCID=b40cd00e
DTITLE=Steven Curtis Chapman, 1962- - re:creation
DYEAR=2011
DGENRE=Contemporary Christian 2011-2020
TTITLE0=Do Everything - Steven Curtis Chapman
TTITLE1=Long Way Home - Steven Curtis Chapman
TTITLE2=The Great Adventure - Steven Curtis Chapman, Geoff Moore
TTITLE3=Dive (Deeper) - Steven Curtis Chapman
TTITLE4=All That's Left - Steven Curtis Chapman, Brent Milligan
TTITLE5=Heaven In The Real World - Steven Curtis Chapman
TTITLE6=Speechless - Steven Curtis Chapman, Geoff Moore
TTITLE7=Live Out Loud - Steven Curtis Chapman, Geoff Moore
TTITLE8=For The Sake Of The Call - Steven Curtis Chapman
TTITLE9=Magnificent Obsession - Steven Curtis Chapman
TTITLE10=Meant To Be - Steven Curtis Chapman
TTITLE11=More To This Life - Steven Curtis Chapman, Phil Naish
TTITLE12=Morning Has Broken -feat. Caleb Chapman - Eleanor Farjeon
TTITLE13=Sing Hallelujah - Steven Curtis Chapman
EXTD=YEAR: 2011
EXTT0=
EXTT1=
EXTT2=
EXTT3=
EXTT4=
EXTT5=
EXTT6=
EXTT7=
EXTT8=
EXTT9=
EXTT10=
EXTT11=
EXTT12=
EXTT13=
PLAYORDER=
